# xmcd
#
# Track frame offsets:
#	150
#	20490
#	33745
#	57902
#	76750
#	99940
#	119175
#	139110
#	158032
#	170875
#	190152
#	213252
#	233192
#	254682
#	274660
#
# Disc length: 4190 seconds
#
# Revision: 12
# Processed by: cddbd v1.5.2PL0 Copyright (c) Steve Scherf et al.
# Submitted via: EasyCDDAExtractor 2010.6.0.0
#
DISCID=d6105c0f
DTITLE=Willie Nelson - Milk Cow Blues
DYEAR=2000
DGENRE=Blues
TTITLE0=Milk Cow Blues w Francine Reed
TTITLE1=Outskirts Of Town w Keb' Mo
TTITLE2=Black Night w Dr. John
TTITLE3=Funny How Time Slips Away w Francine Reed
TTITLE4=Rainy Day Blues w Johnny Lang
TTITLE5=Crazy w Susan Tedeschi
TTITLE6=The Thrill Is Gone w B. B. King
TTITLE7=Wake Me When It's Over
TTITLE8=Kansas City w Susan Tedeschi
TTITLE9=Fool's Paradise w Dr. John
TTITLE10=Ain't Nobody's Business w Johnny Lang
TTITLE11=Night Life w B. B. King
TTITLE12=Sittin' On Top of the World
TTITLE13=Lonely Street
TTITLE14=Texas Flood w Kenny Wayne Shepherd
EXTD=
EXTT0=with Francine Reed
EXTT1=with Keb' Mo'
EXTT2=with Dr. John
EXTT3=with Francine Reed
EXTT4=with Jonny Lang
EXTT5=with Susan Tedeschi
EXTT6=with B.B. King
EXTT7=
EXTT8=with Susan Tedeschi
EXTT9=with Dr. John
EXTT10=with Jonny Lang
EXTT11=with B.B. King
EXTT12=
EXTT13=
EXTT14=with Kenny Wayne Shepherd
PLAYORDER=
